<svg xmlns="http://www.w3.org/2000/svg" width="389.23" height="125" viewBox="0 0 389.23 125"><g transform="translate(-1859.886 -5337.073)"><g transform="translate(1859.886 5337.073)"><path d="M1892.246,5406.053l16.015,9.154v18.3l-16.015-9.154Z" transform="translate(-1870.858 -5360.46)" fill="#fff"/><path d="M1964.027,5350.544a102.216,102.216,0,0,0-101.437,0l-2.7,1.54v58.045a37,37,0,0,0,18.566,32.029l.093.053.033.02.033.014,16.015,9.146,16.022,9.154,2.657,1.528,2.664-1.528,16.022-9.154,16.015-9.146.033-.014.033-.02.093-.053a36.995,36.995,0,0,0,18.566-32.029v-58.045Zm-2.664,23.152-16.015,9.154v54.734h-.007l-16.015,9.154V5391.82l-16.022,9.148v54.925l-16.015-9.154v-18.308l-16.015-9.154v18.308l-.125-.072a31.537,31.537,0,0,1-15.9-27.391V5355.2l48.052,27.462,48.058-27.462Z" transform="translate(-1859.886 -5337.074)" fill="#fff"/></g><g transform="translate(1985.548 5384.788)"><path d="M2067.822,5432.986h-10.56l-1.634,5.5h-5.62l9.485-28.135h5.978l9.6,28.135h-5.619Zm-1.4-4.583-3.865-12.953-3.906,12.953Z" transform="translate(-2050.007 -5409.632)" fill="#fff"/><path d="M2100.661,5410.349h8.967c3.747.041,6.257.041,8.728,2.034a8.562,8.562,0,0,1,3.108,6.935,7.706,7.706,0,0,1-5.54,7.73l6.257,11.437h-6.018l-5.579-10.44h-4.7v10.44h-5.221Zm5.221,4.544v8.806h1.833c1.793,0,2.471-.039,3.467-.079,1.156-.039,4.942-.239,4.942-4.343a4.028,4.028,0,0,0-2.232-3.787c-1.116-.558-2.471-.6-5.579-.6Z" transform="translate(-2067.181 -5409.632)" fill="#fff"/><path d="M2169.506,5430.267a14.856,14.856,0,0,1-2.432,4.224,12.424,12.424,0,0,1-9.723,4.345c-7.453,0-13.152-5.462-13.152-14.866,0-9.564,6.177-14.706,13.35-14.706,8.768,0,10.84,6.736,11.478,8.688l-5.26,1.394a7.141,7.141,0,0,0-1.037-2.79,5.942,5.942,0,0,0-5.061-2.471c-4.583,0-7.772,3.787-7.772,9.8,0,6.416,3.387,9.962,7.811,9.962a6.469,6.469,0,0,0,5.38-2.75,9.279,9.279,0,0,0,1.474-2.908Z" transform="translate(-2081.942 -5409.264)" fill="#fff"/><path d="M2218.212,5410.349v28.135h-5.3v-12.792h-12.076v12.792h-5.26v-28.135h5.26v10.641h12.076v-10.641Z" transform="translate(-2099.361 -5409.632)" fill="#fff"/><path d="M2251.137,5415.051v6.616h13.549v4.544h-13.549v7.53h15.821v4.742h-21v-28.135h20.007v4.7Z" transform="translate(-2116.442 -5409.632)" fill="#fff"/><path d="M2308.209,5415.131h-7.771v23.353h-5.261v-23.353h-7.613v-4.783h20.644Z" transform="translate(-2130.55 -5409.632)" fill="#fff"/><path d="M2341.647,5427.367v11.117h-5.18v-11.117l-9.4-17.018H2333l6.1,11.677,6.176-11.677h5.859Z" transform="translate(-2143.941 -5409.632)" fill="#fff"/><path d="M2373.163,5410.349h9.484a18.259,18.259,0,0,1,4.823.439,8.8,8.8,0,0,1,6.615,8.926c0,3.747-1.753,7.772-6.774,8.887a20.4,20.4,0,0,1-4.743.36h-4.1v9.523h-5.3Zm5.3,4.5v9.762h3.786a11.915,11.915,0,0,0,2.988-.237,4.567,4.567,0,0,0,3.468-4.785,4.653,4.653,0,0,0-1.394-3.585c-1.315-1.116-3.149-1.155-4.863-1.155Z" transform="translate(-2159.571 -5409.632)" fill="#fff"/><path d="M2422.181,5415.051v6.616h13.55v4.544h-13.55v7.53H2438v4.742h-21v-28.135h20.005v4.7Z" transform="translate(-2174.434 -5409.632)" fill="#fff"/></g></g></svg>