<svg xmlns="http://www.w3.org/2000/svg" width="41.012" height="40" viewBox="0 0 41.012 40"><path d="M156.824,383.44a20.509,20.509,0,0,0-6.481,39.965c1.026.188,1.4-.444,1.4-.988,0-.487-.018-1.776-.028-3.488-5.7,1.24-6.907-2.748-6.907-2.748a5.431,5.431,0,0,0-2.277-3c-1.862-1.273.141-1.246.141-1.246a4.305,4.305,0,0,1,3.141,2.112c1.829,3.135,4.8,2.229,5.968,1.7a4.384,4.384,0,0,1,1.3-2.742c-4.553-.517-9.341-2.276-9.341-10.135a7.928,7.928,0,0,1,2.111-5.5,7.367,7.367,0,0,1,.2-5.427s1.721-.551,5.638,2.1a19.445,19.445,0,0,1,10.267,0c3.915-2.654,5.633-2.1,5.633-2.1a7.369,7.369,0,0,1,.205,5.427,7.914,7.914,0,0,1,2.107,5.5c0,7.878-4.795,9.611-9.363,10.119a4.9,4.9,0,0,1,1.392,3.8c0,2.742-.025,4.954-.025,5.626,0,.548.37,1.186,1.41.986a20.509,20.509,0,0,0-6.5-39.962Z" transform="translate(-136.32 -383.44)" fill="#FF4E00" fill-rule="evenodd"/></svg>