<svg xmlns="http://www.w3.org/2000/svg" width="40.001" height="40" viewBox="0 0 40.001 40"><path d="M34.082,34.082H28.155V24.8c0-2.213-.04-5.063-3.083-5.063-3.087,0-3.559,2.412-3.559,4.9v9.442H15.586V14.994h5.69V17.6h.08A6.235,6.235,0,0,1,26.97,14.52c6.007,0,7.115,3.951,7.115,9.092ZM8.9,12.385a3.439,3.439,0,1,1,3.439-3.44A3.439,3.439,0,0,1,8.9,12.385h0m2.963,21.7H5.929V14.994h5.933ZM37.037,0H2.951A2.92,2.92,0,0,0,0,2.886V37.113A2.921,2.921,0,0,0,2.951,40H37.037A2.927,2.927,0,0,0,40,37.113V2.883A2.926,2.926,0,0,0,37.037,0" transform="translate(0.001 0)" fill="#fff"/></svg>