<svg xmlns="http://www.w3.org/2000/svg" width="40" height="32.508" viewBox="0 0 40 32.508"><path d="M87.58,130.919c15.1,0,23.35-12.506,23.35-23.35,0-.355-.007-.709-.024-1.061A16.7,16.7,0,0,0,115,102.26a16.382,16.382,0,0,1-4.713,1.292,8.234,8.234,0,0,0,3.609-4.54A16.446,16.446,0,0,1,108.685,101,8.214,8.214,0,0,0,94.7,108.488a23.3,23.3,0,0,1-16.916-8.574,8.213,8.213,0,0,0,2.54,10.956,8.146,8.146,0,0,1-3.717-1.027c0,.034,0,.069,0,.1a8.21,8.21,0,0,0,6.584,8.046,8.195,8.195,0,0,1-3.706.141,8.216,8.216,0,0,0,7.667,5.7,16.468,16.468,0,0,1-10.193,3.513A16.692,16.692,0,0,1,75,127.233a23.233,23.233,0,0,0,12.58,3.686" transform="translate(-75 -98.411)" fill="#fff"/></svg>