<?xml version="1.0" encoding="utf-8"?>
<!-- Generator: Adobe Illustrator 24.1.0, SVG Export Plug-In . SVG Version: 6.00 Build 0)  -->
<svg version="1.1" id="Calque_1" xmlns="http://www.w3.org/2000/svg" xmlns:xlink="http://www.w3.org/1999/xlink" x="0px" y="0px"
	 viewBox="0 0 413 496" style="enable-background:new 0 0 413 496;" xml:space="preserve">
<style type="text/css">
	.st0{fill:#FFFFFF;}
</style>
<g>
	<polygon class="st0" points="330.35,481.95 316.59,495.71 247.78,426.9 178.98,495.71 165.22,481.95 234.02,413.14 165.22,344.33 
		96.41,413.14 82.65,399.38 151.45,330.57 82.65,261.76 13.84,330.57 0.08,316.81 68.88,248 0.08,179.19 13.84,165.43 82.65,234.24 
		151.45,165.43 82.65,96.62 96.41,82.86 165.22,151.67 234.02,82.86 165.22,14.05 178.98,0.29 247.78,69.1 316.59,0.29 
		330.35,14.05 261.55,82.86 330.35,151.67 399.16,82.86 412.92,96.62 330.35,179.19 247.78,96.62 96.41,248 247.78,399.38 
		330.35,316.81 412.92,399.38 399.16,413.14 330.35,344.33 261.55,413.14 	"/>
</g>
</svg>
