<?xml version="1.0" encoding="utf-8"?>
<!-- Generator: Adobe Illustrator 24.1.0, SVG Export Plug-In . SVG Version: 6.00 Build 0)  -->
<svg version="1.1" id="Calque_1" xmlns="http://www.w3.org/2000/svg" xmlns:xlink="http://www.w3.org/1999/xlink" x="0px" y="0px"
	 viewBox="0 0 1800 496" style="enable-background:new 0 0 1800 496;" xml:space="preserve">
<style type="text/css">
	.st0{fill:#FFFFFF;}
</style>
<g>
	<g>
		<g>
			<path class="st0" d="M534.14,277.79c-6.17,24.46-24.44,42.59-57.18,42.59c-42.79,0-64.11-32.04-64.11-72.07
				c0-38.5,21.46-73.26,64.96-73.26c34.18,0,52.31,19.61,56.35,43.26h-21c-4.67-14.56-14.37-26.04-36.15-26.04
				c-30.07,0-42.26,27.3-42.26,55.37c0,27.04,11.43,55.52,43.07,55.52c21.46,0,30.41-12.67,35.22-25.37H534.14z"/>
			<path class="st0" d="M576.86,169.19v60.39c5.15-8.65,14.39-17.15,31.85-17.15c17.15,0,34.89,9.55,34.89,39.89v66.26h-19.91
				v-63.02c0-16.83-6.94-26.11-21.44-26.11c-18.13,0-25.39,12.24-25.39,32.76v56.37h-20V169.19H576.86z"/>
			<path class="st0" d="M751.09,295.14c0,9.52,0.82,20.54,1.43,23.42h-19.13c-0.81-2.26-1.43-7.3-1.65-12.91
				c-3.65,6.7-11.68,15.35-31.46,15.35c-24.55,0-35.02-16.02-35.02-31.85c0-23.24,18.33-33.89,49.07-33.89c6.8,0,13.33,0,17.13,0
				v-8.35c0-8.8-2.87-19.2-21.09-19.2c-16.31,0-19.19,7.93-20.96,15.91h-19.26c1.41-15.09,10.74-31.29,40.89-31.2
				c25.81,0.09,40.05,10.52,40.05,34.31V295.14z M731.58,268.66c-3.13,0-10.56,0-15.8,0c-20.02,0-30.18,5.63-30.18,19.35
				c0,10.15,6.85,17.7,19.17,17.7c23.67,0,26.81-16.02,26.81-33.85V268.66z"/>
			<path class="st0" d="M780.93,169.19h20v23h-20V169.19z M780.93,214.87h20v103.7h-20V214.87z"/>
			<path class="st0" d="M830.72,241c0-8.96,0-18.17-0.2-26.13h19.42c0.5,2.98,0.8,13.17,0.78,16.3
				c4.02-8.44,12.46-18.74,32.15-18.74c19.7,0,34.59,12.31,34.59,39.59v66.55h-20v-64.09c0-14.89-5.69-25.04-20.91-25.04
				c-18.13,0-25.83,13.32-25.83,33.67v55.46h-20V241z"/>
			<path class="st0" d="M932.83,214.87h17.55v-30.11h20v30.11h22.39v15.96h-22.39v58.89c0,9.65,2.44,14.41,11.67,14.41
				c2.32,0,5.85-0.11,8.56-0.76v14.7c-4.67,1.7-11.13,1.93-16.24,1.93c-16.92,0-23.98-8.83-23.98-26.24v-62.92h-17.55V214.87z"/>
			<path class="st0" d="M1023.56,270.53c0.11,19.52,9.93,34.06,26.89,34.06c15.54,0,20.48-7.74,23.69-15.07h20.11
				c-4,13.17-15.17,31.5-44.39,31.5c-32.91,0-46.5-26.31-46.5-53.11c0-31.17,15.76-55.48,47.63-55.48
				c33.87,0,45.05,26.63,45.05,49.48c0,3.22,0,5.8-0.3,8.63H1023.56z M1075.82,256.94c-0.2-16.09-8.06-29.11-25.06-29.11
				c-17.37,0-24.91,12.07-26.59,29.11H1075.82z"/>
			<path class="st0" d="M1118.65,318.57V169.19h20v149.38H1118.65z"/>
			<path class="st0" d="M1168.35,318.57V169.19h20v149.38H1168.35z"/>
			<path class="st0" d="M1218.05,169.19h20v23h-20V169.19z M1218.05,214.87h20v103.7h-20V214.87z"/>
			<path class="st0" d="M1354.91,308.59c0,33.24-13.44,52.57-48.35,52.57c-32.68,0-41.92-18.29-43.63-31.92h20.39
				c2.83,10.54,11.2,16.33,24.11,16.33c22.59,0,27.98-14.24,27.98-37.43v-7.72c-5.5,11.11-14.83,17.5-31.8,17.5
				c-25.87,0-42.9-21.11-42.9-51.02c0-33.57,19.65-54.48,44.89-54.48c19.39,0,27.61,9.13,29.81,15.61
				c0.2-4.33,0.69-11.09,0.89-13.17h18.92c-0.09,6.63-0.31,19.94-0.31,29.91V308.59z M1281.41,266.03
				c0,21.09,10.89,35.09,27.02,35.09c21.39,0,27.56-14.41,27.56-36.35c0-22.17-5.56-35.65-26.94-35.65
				C1291.17,229.13,1281.41,243.92,1281.41,266.03z"/>
			<path class="st0" d="M1397.95,270.53c0.11,19.52,9.93,34.06,26.89,34.06c15.54,0,20.48-7.74,23.69-15.07h20.11
				c-4,13.17-15.17,31.5-44.39,31.5c-32.91,0-46.5-26.31-46.5-53.11c0-31.17,15.76-55.48,47.63-55.48
				c33.87,0,45.05,26.63,45.05,49.48c0,3.22,0,5.8-0.3,8.63H1397.95z M1450.21,256.94c-0.2-16.09-8.06-29.11-25.06-29.11
				c-17.37,0-24.91,12.07-26.59,29.11H1450.21z"/>
			<path class="st0" d="M1492.92,241c0-8.96,0-18.17-0.2-26.13h19.42c0.5,2.98,0.8,13.17,0.78,16.3
				c4.02-8.44,12.46-18.74,32.15-18.74c19.7,0,34.59,12.31,34.59,39.59v66.55h-20v-64.09c0-14.89-5.69-25.04-20.91-25.04
				c-18.13,0-25.83,13.32-25.83,33.67v55.46h-20V241z"/>
			<path class="st0" d="M1692.53,286.5c-4.24,17.74-16.33,34.52-43.59,34.52c-29.26,0-46.74-20.89-46.74-53.7
				c0-29.57,17-54.89,48.05-54.89c30.87,0,41.09,22.03,42.28,35.09h-19.74c-2.41-10.15-8.67-18.67-22.93-18.67
				c-17.33,0-27.15,14.91-27.15,37.78c0,23.31,9.65,38.05,26.59,38.05c12.37,0,19.48-6.7,23.39-18.19H1692.53z"/>
			<path class="st0" d="M1727.52,270.53c0.11,19.52,9.93,34.06,26.89,34.06c15.54,0,20.48-7.74,23.69-15.07h20.11
				c-4,13.17-15.17,31.5-44.39,31.5c-32.91,0-46.5-26.31-46.5-53.11c0-31.17,15.76-55.48,47.63-55.48
				c33.87,0,45.05,26.63,45.05,49.48c0,3.22,0,5.8-0.3,8.63H1727.52z M1779.78,256.94c-0.2-16.09-8.06-29.11-25.06-29.11
				c-17.37,0-24.91,12.07-26.59,29.11H1779.78z"/>
		</g>
	</g>
	<polygon class="st0" points="330.28,481.95 316.52,495.71 247.71,426.9 178.9,495.71 165.14,481.95 233.95,413.14 165.14,344.33 
		96.33,413.14 82.57,399.38 151.38,330.57 82.57,261.76 13.76,330.57 0,316.81 68.81,248 0,179.19 13.76,165.43 82.57,234.24 
		151.38,165.43 82.57,96.62 96.33,82.86 165.14,151.67 233.95,82.86 165.14,14.05 178.9,0.29 247.71,69.1 316.52,0.29 330.28,14.05 
		261.47,82.86 330.28,151.67 399.09,82.86 412.85,96.62 330.28,179.19 247.71,96.62 96.33,248 247.71,399.38 330.28,316.81 
		412.85,399.38 399.09,413.14 330.28,344.33 261.47,413.14 	"/>
</g>
</svg>
